<?xml version="1.0" encoding="UTF-8"?>
<svg width="700" height="250" xmlns="http://www.w3.org/2000/svg">
  <defs>
    <linearGradient id="gradient" x1="0%" y1="0%" x2="0%" y2="100%">
      <stop offset="0%" style="stop-color:#4285f4;stop-opacity:0.6" />
      <stop offset="100%" style="stop-color:#4285f4;stop-opacity:0.05" />
    </linearGradient>
  </defs>
  
  <!-- 背景 -->
  <rect width="700" height="250" fill="#fafafa" rx="10"/>
  
  <!-- 标题 -->
  <text x="350.0" y="30" text-anchor="middle" font-family="Arial, sans-serif" font-size="16" font-weight="bold" fill="#333">
    📈 Cumulative Citations (Total: 582)
  </text>
  
  <!-- Y轴标签 -->
  <g font-family="Arial, sans-serif" font-size="10" fill="#888">
    <text x="50" y="54.0" text-anchor="end">582</text>
    <line x1="60" y1="50.0" x2="650" y2="50.0" stroke="#e0e0e0" stroke-width="1"/>
    <text x="50" y="91.5" text-anchor="end">436</text>
    <line x1="60" y1="87.5" x2="650" y2="87.5" stroke="#e0e0e0" stroke-width="1"/>
    <text x="50" y="129.0" text-anchor="end">291</text>
    <line x1="60" y1="125.0" x2="650" y2="125.0" stroke="#e0e0e0" stroke-width="1"/>
    <text x="50" y="166.5" text-anchor="end">145</text>
    <line x1="60" y1="162.5" x2="650" y2="162.5" stroke="#e0e0e0" stroke-width="1"/>
    <text x="50" y="204.0" text-anchor="end">0</text>
    <line x1="60" y1="200.0" x2="650" y2="200.0" stroke="#e0e0e0" stroke-width="1"/>
  </g>

  <!-- 填充区域 -->
  <polygon points="60,200 60.0,198.1958762886598 207.5,193.55670103092783 355.0,153.09278350515464 502.5,70.61855670103094 650.0,50.00000000000003 650.0,200" fill="url(#gradient)"/>

  <!-- 折线 -->
  <polyline points="60.0,198.1958762886598 207.5,193.55670103092783 355.0,153.09278350515464 502.5,70.61855670103094 650.0,50.00000000000003" fill="none" stroke="#4285f4" stroke-width="3" stroke-linecap="round" stroke-linejoin="round"/>

  <!-- 数据点和标签 -->
  <circle cx="60.0" cy="198.1958762886598" r="5" fill="#4285f4" stroke="#fff" stroke-width="2"/>
  <text x="60.0" y="218" text-anchor="middle" font-family="Arial, sans-serif" font-size="10" fill="#666">2022</text>
  <text x="60.0" y="186.1958762886598" text-anchor="middle" font-family="Arial, sans-serif" font-size="10" font-weight="bold" fill="#4285f4">7</text>
  <circle cx="207.5" cy="193.55670103092783" r="5" fill="#4285f4" stroke="#fff" stroke-width="2"/>
  <text x="207.5" y="218" text-anchor="middle" font-family="Arial, sans-serif" font-size="10" fill="#666">2023</text>
  <text x="207.5" y="181.55670103092783" text-anchor="middle" font-family="Arial, sans-serif" font-size="10" font-weight="bold" fill="#4285f4">25</text>
  <circle cx="355.0" cy="153.09278350515464" r="5" fill="#4285f4" stroke="#fff" stroke-width="2"/>
  <text x="355.0" y="218" text-anchor="middle" font-family="Arial, sans-serif" font-size="10" fill="#666">2024</text>
  <text x="355.0" y="141.09278350515464" text-anchor="middle" font-family="Arial, sans-serif" font-size="10" font-weight="bold" fill="#4285f4">182</text>
  <circle cx="502.5" cy="70.61855670103094" r="5" fill="#4285f4" stroke="#fff" stroke-width="2"/>
  <text x="502.5" y="218" text-anchor="middle" font-family="Arial, sans-serif" font-size="10" fill="#666">2025</text>
  <text x="502.5" y="88.61855670103094" text-anchor="middle" font-family="Arial, sans-serif" font-size="10" font-weight="bold" fill="#4285f4">502</text>
  <circle cx="650.0" cy="50.00000000000003" r="5" fill="#4285f4" stroke="#fff" stroke-width="2"/>
  <text x="650.0" y="218" text-anchor="middle" font-family="Arial, sans-serif" font-size="10" fill="#666">2026</text>
  <text x="650.0" y="70.00000000000003" text-anchor="middle" font-family="Arial, sans-serif" font-size="10" font-weight="bold" fill="#4285f4">582</text>
</svg>