<?xml version="1.0" encoding="UTF-8"?>
<svg width="700" height="250" xmlns="http://www.w3.org/2000/svg">
  <defs>
    <linearGradient id="gradient" x1="0%" y1="0%" x2="0%" y2="100%">
      <stop offset="0%" style="stop-color:#4285f4;stop-opacity:0.6" />
      <stop offset="100%" style="stop-color:#4285f4;stop-opacity:0.05" />
    </linearGradient>
  </defs>
  
  <!-- èƒŒæ™¯ -->
  <rect width="700" height="250" fill="#fafafa" rx="10"/>
  
  <!-- æ ‡é¢˜ -->
  <text x="350.0" y="30" text-anchor="middle" font-family="Arial, sans-serif" font-size="16" font-weight="bold" fill="#333">
    ðŸ“ˆ Cumulative Citations (Total: 526)
  </text>
  
  <!-- Yè½´æ ‡ç­¾ -->
  <g font-family="Arial, sans-serif" font-size="10" fill="#888">
    <text x="50" y="54.0" text-anchor="end">526</text>
    <line x1="60" y1="50.0" x2="650" y2="50.0" stroke="#e0e0e0" stroke-width="1"/>
    <text x="50" y="91.5" text-anchor="end">394</text>
    <line x1="60" y1="87.5" x2="650" y2="87.5" stroke="#e0e0e0" stroke-width="1"/>
    <text x="50" y="129.0" text-anchor="end">263</text>
    <line x1="60" y1="125.0" x2="650" y2="125.0" stroke="#e0e0e0" stroke-width="1"/>
    <text x="50" y="166.5" text-anchor="end">131</text>
    <line x1="60" y1="162.5" x2="650" y2="162.5" stroke="#e0e0e0" stroke-width="1"/>
    <text x="50" y="204.0" text-anchor="end">0</text>
    <line x1="60" y1="200.0" x2="650" y2="200.0" stroke="#e0e0e0" stroke-width="1"/>
  </g>

  <!-- å¡«å……åŒºåŸŸ -->
  <polygon points="60,200 60.0,197.71863117870723 207.5,192.58555133079847 355.0,148.09885931558935 502.5,57.41444866920153 650.0,50.0 650.0,200" fill="url(#gradient)"/>

  <!-- æŠ˜çº¿ -->
  <polyline points="60.0,197.71863117870723 207.5,192.58555133079847 355.0,148.09885931558935 502.5,57.41444866920153 650.0,50.0" fill="none" stroke="#4285f4" stroke-width="3" stroke-linecap="round" stroke-linejoin="round"/>

  <!-- æ•°æ®ç‚¹å’Œæ ‡ç­¾ -->
  <circle cx="60.0" cy="197.71863117870723" r="5" fill="#4285f4" stroke="#fff" stroke-width="2"/>
  <text x="60.0" y="218" text-anchor="middle" font-family="Arial, sans-serif" font-size="10" fill="#666">2022</text>
  <text x="60.0" y="185.71863117870723" text-anchor="middle" font-family="Arial, sans-serif" font-size="10" font-weight="bold" fill="#4285f4">8</text>
  <circle cx="207.5" cy="192.58555133079847" r="5" fill="#4285f4" stroke="#fff" stroke-width="2"/>
  <text x="207.5" y="218" text-anchor="middle" font-family="Arial, sans-serif" font-size="10" fill="#666">2023</text>
  <text x="207.5" y="180.58555133079847" text-anchor="middle" font-family="Arial, sans-serif" font-size="10" font-weight="bold" fill="#4285f4">26</text>
  <circle cx="355.0" cy="148.09885931558935" r="5" fill="#4285f4" stroke="#fff" stroke-width="2"/>
  <text x="355.0" y="218" text-anchor="middle" font-family="Arial, sans-serif" font-size="10" fill="#666">2024</text>
  <text x="355.0" y="136.09885931558935" text-anchor="middle" font-family="Arial, sans-serif" font-size="10" font-weight="bold" fill="#4285f4">182</text>
  <circle cx="502.5" cy="57.41444866920153" r="5" fill="#4285f4" stroke="#fff" stroke-width="2"/>
  <text x="502.5" y="218" text-anchor="middle" font-family="Arial, sans-serif" font-size="10" fill="#666">2025</text>
  <text x="502.5" y="75.41444866920153" text-anchor="middle" font-family="Arial, sans-serif" font-size="10" font-weight="bold" fill="#4285f4">500</text>
  <circle cx="650.0" cy="50.0" r="5" fill="#4285f4" stroke="#fff" stroke-width="2"/>
  <text x="650.0" y="218" text-anchor="middle" font-family="Arial, sans-serif" font-size="10" fill="#666">2026</text>
  <text x="650.0" y="70.0" text-anchor="middle" font-family="Arial, sans-serif" font-size="10" font-weight="bold" fill="#4285f4">526</text>
</svg>