<?xml version="1.0" encoding="UTF-8"?>
<svg width="700" height="250" xmlns="http://www.w3.org/2000/svg">
  <defs>
    <linearGradient id="gradient" x1="0%" y1="0%" x2="0%" y2="100%">
      <stop offset="0%" style="stop-color:#4285f4;stop-opacity:0.6" />
      <stop offset="100%" style="stop-color:#4285f4;stop-opacity:0.05" />
    </linearGradient>
  </defs>
  
  <!-- 背景 -->
  <rect width="700" height="250" fill="#fafafa" rx="10"/>
  
  <!-- 标题 -->
  <text x="350.0" y="30" text-anchor="middle" font-family="Arial, sans-serif" font-size="16" font-weight="bold" fill="#333">
    📈 Cumulative Citations (Total: 565)
  </text>
  
  <!-- Y轴标签 -->
  <g font-family="Arial, sans-serif" font-size="10" fill="#888">
    <text x="50" y="54.0" text-anchor="end">565</text>
    <line x1="60" y1="50.0" x2="650" y2="50.0" stroke="#e0e0e0" stroke-width="1"/>
    <text x="50" y="91.5" text-anchor="end">423</text>
    <line x1="60" y1="87.5" x2="650" y2="87.5" stroke="#e0e0e0" stroke-width="1"/>
    <text x="50" y="129.0" text-anchor="end">282</text>
    <line x1="60" y1="125.0" x2="650" y2="125.0" stroke="#e0e0e0" stroke-width="1"/>
    <text x="50" y="166.5" text-anchor="end">141</text>
    <line x1="60" y1="162.5" x2="650" y2="162.5" stroke="#e0e0e0" stroke-width="1"/>
    <text x="50" y="204.0" text-anchor="end">0</text>
    <line x1="60" y1="200.0" x2="650" y2="200.0" stroke="#e0e0e0" stroke-width="1"/>
  </g>

  <!-- 填充区域 -->
  <polygon points="60,200 60.0,197.87610619469027 207.5,193.09734513274336 355.0,151.68141592920352 502.5,66.99115044247787 650.0,50.0 650.0,200" fill="url(#gradient)"/>

  <!-- 折线 -->
  <polyline points="60.0,197.87610619469027 207.5,193.09734513274336 355.0,151.68141592920352 502.5,66.99115044247787 650.0,50.0" fill="none" stroke="#4285f4" stroke-width="3" stroke-linecap="round" stroke-linejoin="round"/>

  <!-- 数据点和标签 -->
  <circle cx="60.0" cy="197.87610619469027" r="5" fill="#4285f4" stroke="#fff" stroke-width="2"/>
  <text x="60.0" y="218" text-anchor="middle" font-family="Arial, sans-serif" font-size="10" fill="#666">2022</text>
  <text x="60.0" y="185.87610619469027" text-anchor="middle" font-family="Arial, sans-serif" font-size="10" font-weight="bold" fill="#4285f4">8</text>
  <circle cx="207.5" cy="193.09734513274336" r="5" fill="#4285f4" stroke="#fff" stroke-width="2"/>
  <text x="207.5" y="218" text-anchor="middle" font-family="Arial, sans-serif" font-size="10" fill="#666">2023</text>
  <text x="207.5" y="181.09734513274336" text-anchor="middle" font-family="Arial, sans-serif" font-size="10" font-weight="bold" fill="#4285f4">26</text>
  <circle cx="355.0" cy="151.68141592920352" r="5" fill="#4285f4" stroke="#fff" stroke-width="2"/>
  <text x="355.0" y="218" text-anchor="middle" font-family="Arial, sans-serif" font-size="10" fill="#666">2024</text>
  <text x="355.0" y="139.68141592920352" text-anchor="middle" font-family="Arial, sans-serif" font-size="10" font-weight="bold" fill="#4285f4">182</text>
  <circle cx="502.5" cy="66.99115044247787" r="5" fill="#4285f4" stroke="#fff" stroke-width="2"/>
  <text x="502.5" y="218" text-anchor="middle" font-family="Arial, sans-serif" font-size="10" fill="#666">2025</text>
  <text x="502.5" y="84.99115044247787" text-anchor="middle" font-family="Arial, sans-serif" font-size="10" font-weight="bold" fill="#4285f4">501</text>
  <circle cx="650.0" cy="50.0" r="5" fill="#4285f4" stroke="#fff" stroke-width="2"/>
  <text x="650.0" y="218" text-anchor="middle" font-family="Arial, sans-serif" font-size="10" fill="#666">2026</text>
  <text x="650.0" y="70.0" text-anchor="middle" font-family="Arial, sans-serif" font-size="10" font-weight="bold" fill="#4285f4">565</text>
</svg>